<svg xmlns="http://www.w3.org/2000/svg" viewBox="0 0 144.492 115.369" height="436.038" width="546.113"><path d="M73.94 115.264c5.147-.795 9.123-4.213 10.57-9.088 1.576-5.304-.739-11.393-5.471-14.396-8.455-5.365-19.493.815-19.493 10.914 0 5.648 3.698 10.635 8.997 12.134 1.777.502 3.871.671 5.396.436zm-3.81-6.248c-1.598-.436-3.867-2.815-4.359-4.57-1.209-4.318 1.964-8.465 6.475-8.465 4.785 0 8.061 4.744 6.225 9.013-1.473 3.425-4.745 5.003-8.342 4.022zm27.375-28.022c1.063-.504 3.021-2.294 7.943-7.264 6.915-6.982 7.15-7.31 7.154-9.92.002-1.272-.634-2.902-1.493-3.83-3.591-3.877-12.965-9.503-19.806-11.888-10.202-3.556-21.869-4.108-32.752-1.548-7.785 1.83-16.407 6.088-22.57 11.144-1.087.892-2.256 1.923-2.597 2.292-.86.928-1.496 2.558-1.494 3.83.004 2.61.24 2.938 7.154 9.92 6.935 7.002 8.171 7.937 10.483 7.93 1.453-.004 2.936-.691 5.221-2.418 10.157-7.675 24.84-7.675 34.996 0 3.38 2.554 5.203 2.966 7.761 1.752zm-4.851-7.117c-3.877-2.784-8.309-4.716-13.352-5.821-3.777-.827-10.335-.827-14.111 0-5.052 1.106-9.475 3.036-13.37 5.833-1.221.878-2.323 1.558-2.448 1.513-.603-.22-11.325-11.572-11.105-11.758 3.407-2.888 7.563-5.6 11.541-7.53 16.156-7.842 35.686-6.582 50.654 3.267 2.911 1.916 5.724 4.106 5.905 4.598.082.224-11.072 11.391-11.456 11.47-.03.006-1.046-.701-2.258-1.572zm36.601-24.549c.574-.248 3.693-3.113 7.44-6.833 6.81-6.76 7.792-8.057 7.797-10.304.005-1.98-.98-3.639-3.5-5.9C127.174 13.898 110.869 5.71 92.567 1.977c-12.91-2.635-27.73-2.635-40.64 0C33.636 5.707 17.31 13.906 3.5 26.292c-2.52 2.26-3.505 3.92-3.5 5.9.006 2.262.973 3.533 7.937 10.43 7.011 6.944 7.311 7.16 9.981 7.148 1.603-.007 3.092-.794 5.363-2.836 9.097-8.181 21.495-14.366 33.928-16.924 9.293-1.912 20.781-1.912 30.075 0 12.432 2.558 24.83 8.743 33.928 16.924 1.086.978 2.483 2.014 3.104 2.304 1.364.637 3.582.678 4.939.09zm-5.331-8.087c-9.55-8.02-20.214-13.455-32.233-16.43-25.298-6.26-51.586-.113-71.448 16.708-1.36 1.152-2.586 2.053-2.724 2.002-.137-.051-2.744-2.657-5.792-5.79l-5.542-5.698 2.621-2.296c6.519-5.709 13.265-10.143 21.448-14.094 9.582-4.628 19.217-7.476 30.28-8.95 5.161-.689 18.263-.689 23.424 0 19.735 2.63 37.418 10.511 51.75 23.063l2.642 2.314-5.744 5.75c-3.16 3.162-5.782 5.75-5.827 5.75-.046 0-1.33-1.049-2.855-2.33z"/></svg>