<svg height="319.364" viewBox="0 0 144.32 84.499" width="545.462" xmlns="http://www.w3.org/2000/svg"><path d="m3.674 84.32c-3.73-.892-4.946-5.656-2.118-8.292 2.53-2.358 7.283-5.814 8.006-5.822.953-.009 1.86.759 2.102 1.782.168.709.012.97-1.354 2.258-.85.8-2.512 2.155-3.693 3.009-2.299 1.661-2.65 2.107-2.145 2.716.482.581 134.926.581 135.408 0 .463-.558.171-1.053-1.179-1.995-3.366-2.35-8.023-6.392-14.596-12.67-3.78-3.611-6.224-6.132-11.897-12.277l-2.161-2.34-1.4 1.005c-1.856 1.334-3.425 1.854-5.592 1.854-2.776 0-4.546-.807-7.182-3.272-2.897-2.71-3.338-2.764-5.494-.687-.776.748-1.682 1.44-2.013 1.539-1.447.431-2.958-1.256-2.399-2.679.395-1.004 3.116-3.555 4.333-4.06 1.33-.553 3.611-.56 4.913-.017.553.231 1.915 1.302 3.026 2.38 1.112 1.078 2.378 2.095 2.814 2.261 1.228.467 3.21.357 4.385-.242 2.06-1.05 2.059-1.052-1-4.73a307.572 307.572 0 0 1 -5.292-6.58c-5.38-6.929-7.352-8.62-11.979-10.277l-2.432-.87h-25.118l-2.432.87c-4.499 1.61-6.765 3.512-11.409 9.572-1.07 1.397-3.451 4.358-5.29 6.58-3.68 4.445-3.659 4.37-1.572 5.435 1.166.594 3.155.71 4.358.252.422-.16 1.37-.796 2.107-1.413 2.288-1.916 4.883-2.649 7.773-2.196 2.208.346 3.482 1.076 5.911 3.383 1.459 1.385 2.322 2 2.812 2s1.353-.615 2.812-2c1.157-1.1 2.605-2.255 3.217-2.567 2.281-1.164 6.175-1.216 8.325-.112.487.25 1.592 1.009 2.456 1.685.863.676 1.698 1.23 1.856 1.23.157 0 .562.293.9.652.723.771.81 2.215.17 2.854-1.135 1.135-2.746.732-5.425-1.357-3.302-2.574-5.429-2.375-8.789.822-2.598 2.472-3.562 2.995-5.519 2.995-1.928 0-3.24-.681-5.224-2.715-3.403-3.487-5.502-3.743-9.019-1.1-2.248 1.69-4.06 2.364-6.362 2.364-2.172 0-4.15-.68-5.816-2l-1.176-.93-.696.83c-1.972 2.35-11.047 11.81-13.717 14.3-2.45 2.283-3.227 2.852-3.896 2.852-1.277 0-2.063-.975-1.967-2.44.018-.281 2.288-2.757 5.043-5.503l5.01-4.992-5.927-.142c-6.335-.15-6.612-.21-7.861-1.695-.89-1.058-1.186-2.478-.776-3.721.684-2.072 4.32-4.919 8.192-6.412 3.859-1.488 7.168-2.033 13.427-2.21l5.644-.16 1.308-1.599c.719-.879 2.876-3.607 4.794-6.061 3.95-5.055 5.792-6.85 8.788-8.564 4.714-2.697 7.253-3.162 17.277-3.162h7.705l.198-1.055c.328-1.751 2.022-5.65 3.447-7.937 1.813-2.909 5.047-6.225 7.99-8.194 8.475-5.669 18.766-6.3 27.939-1.714 7.265 3.633 12.688 10.612 14.576 18.759 1.125 4.856.342 13.762-1.37 15.585-1.233 1.312-3.414.506-3.405-1.259.002-.429.287-2.05.634-3.602.526-2.354.604-3.336.47-5.926-.202-3.897-.692-5.759-2.45-9.314-2.98-6.025-8.038-10.25-14.523-12.128-11.998-3.477-24.578 3.128-28.683 15.059-.29.843-.527 1.557-.527 1.588 0 .03.88.13 1.956.22 4.11.345 7.744 1.639 11.295 4.02 2.392 1.606 3.785 3.07 7.774 8.175 3.402 4.352 11.127 13.649 11.822 14.226.37.307.678.22 1.93-.548 2.082-1.278 2.577-1.684 5.336-4.382 1.398-1.367 2.675-2.382 2.996-2.382.308 0 .894.263 1.303.585 1.157.91 1.017 2.168-.428 3.843-1.638 1.898-4.622 4.49-6.378 5.542-.815.487-1.482.96-1.482 1.05s2.737 2.913 6.08 6.275c6.573 6.606 11.071 10.71 15.51 14.155 4.12 3.195 5.161 4.25 5.521 5.586.582 2.16-.473 4.761-2.344 5.783-.873.477-4.336.504-69.075.545-37.487.024-68.567-.055-69.067-.174zm26.313-35.217a762.346 762.346 0 0 0 2.517-2.86l.584-.67-3.669.153c-6.523.275-11.758 1.879-14.639 4.486l-1.165 1.055 7.22.012 7.22.011zm57.351 28.52c-1.007-.262-3.59-6.573-3.59-8.77 0-1.356.75-2.137 2.019-2.101 1.21.034 1.761.712 2.347 2.883.272 1.009.861 2.645 1.31 3.637.448.992.814 2.166.814 2.61 0 1.448-1.217 2.18-2.9 1.741zm-51.762-3.751c-.717-.296-1.218-1.117-1.218-1.997 0-.404.896-1.511 2.583-3.193 2.998-2.99 5.582-6.14 6.788-8.278 1.274-2.257 2.463-2.86 3.799-1.924.997.698 1.063 1.735.216 3.407-1.948 3.852-8.996 11.691-10.873 12.094-.373.08-.956.031-1.295-.109zm73.43-.885c-1.146-.566-5.182-6.231-6.545-9.187-.758-1.644-.669-2.673.29-3.344 1.469-1.03 2.64-.325 4.005 2.405.922 1.846 2.446 4.127 4.05 6.063 1.37 1.656 1.527 2.81.51 3.766-.698.655-1.4.746-2.31.297z"/></svg>