<svg xmlns="http://www.w3.org/2000/svg" viewBox="0 0 83.838 71.66" height="270.841" width="316.867"><path d="M1.884 71.46c-1.542-.554-2.003-1.602-1.86-4.235.332-6.086 2.681-10.85 6.957-14.105 2.694-2.05 6.631-3.519 10.269-3.829l1.134-.096-1.38-.284c-2.573-.53-4.591-1.503-6.495-3.134-7.05-6.04-6.33-17.182 1.444-22.35 3.863-2.569 9.039-2.998 13.311-1.105 6.41 2.84 9.697 9.852 7.822 16.684-.816 2.975-3.025 6.027-5.623 7.769-1.656 1.11-4.686 2.254-6.17 2.33-.234.011.078.08.693.151 10.484 1.219 17.125 8.325 17.217 18.426.017 1.785-.017 2.023-.359 2.573-.207.334-.65.776-.983.983l-.606.377-17.37.036c-14.423.029-17.478-.003-18-.191zm31.444-6.277c-.063-.428-.3-1.331-.526-2.007-1.354-4.034-4.376-6.658-9.104-7.905-1.932-.51-6.317-.506-8.196.007-1.635.446-3.014 1.007-4.17 1.695-1.215.723-3.104 2.61-3.807 3.804-.679 1.152-1.435 3.232-1.584 4.36l-.11.825h27.61zM21.68 43.261c2.918-.76 5.38-3.256 6.061-6.144.684-2.902-.148-5.775-2.288-7.898-3.279-3.252-8.421-3.23-11.7.049-3.316 3.315-3.297 8.476.042 11.815 2.057 2.057 5.111 2.9 7.885 2.178zm47.14 18.425c-1.226-.256-2.15-1.391-2.15-2.64 0-1.056.297-1.59 1.761-3.162 5.149-5.53 8.496-12.747 9.473-20.427.379-2.973.262-8.259-.242-10.955-1.34-7.17-4.58-13.716-9.204-18.599-.512-.54-1.124-1.27-1.36-1.62-1.374-2.046.644-4.817 3.054-4.194.557.145.998.49 2.196 1.718 4.35 4.46 8 10.845 9.824 17.182 3.42 11.882 1.514 24.805-5.17 35.06-1.851 2.838-5.204 6.858-6.142 7.363-.52.28-1.426.402-2.04.274zM56.058 49.108c-.603-.174-1.532-1.008-1.777-1.597-.528-1.263-.224-2.132 1.408-4.021 1.524-1.763 2.637-3.589 3.432-5.63.855-2.193 1.156-3.679 1.264-6.23.223-5.266-1.479-9.835-5.205-13.968-.426-.473-.862-1.123-.968-1.446-.573-1.737.838-3.685 2.661-3.673.952.006 1.815.546 2.941 1.837 1.51 1.73 2.424 3.059 3.472 5.042 2.833 5.363 3.547 11.82 1.981 17.907-.66 2.569-2.26 5.907-3.89 8.122-2.357 3.2-3.699 4.124-5.32 3.657zm-10.855-8.239c-1.004-.4-1.677-1.446-1.677-2.605 0-.889.161-1.237 1.118-2.414 2.445-3.01 2.46-6.906.036-9.873-.994-1.217-1.154-1.558-1.154-2.458 0-1.107.569-2.047 1.546-2.555.623-.325 1.837-.287 2.554.08.766.392 2.107 2.037 2.96 3.628 2.514 4.697 1.884 10.732-1.537 14.743-1.016 1.19-1.761 1.64-2.7 1.627-.405-.005-.921-.083-1.146-.173z"/></svg>