<svg xmlns="http://www.w3.org/2000/svg" viewBox="0 0 144.465 143.901" height="543.879" width="546.011"><path d="M11.142 143.259c-1.636-.762-3.916-3.136-4.7-4.895-.934-2.091-1.17-4.17-.763-6.681l.366-2.253-2.432-2.278C.975 124.682 0 123.188 0 121.618c0-2.42 2.982-6.084 6.138-7.544 3.303-1.528 9.117-.673 10.15 1.492.37.78.377 1.018.044 1.714-.61 1.271-1.553 1.44-3.878.691-2.102-.676-3.347-.639-4.861.144-1.2.62-2.497 1.817-2.979 2.749l-.445.861 2.572 2.458c1.431 1.367 2.76 2.907 2.996 3.47.488 1.169.536 3.162.12 4.97-.749 3.247 2.124 7.593 4.606 6.97.97-.244 3.927-4.064 5.32-6.873.654-1.32 1.283-3.109 1.464-4.162.34-1.984.3-2.119-1.557-5.266-.53-.898-.559-1.12-.241-1.887.448-1.08 1.696-1.596 2.726-1.127.853.389 2.817 3.252 3.216 4.688 1.15 4.142-1.348 10.68-6.177 16.163-.855.97-2.037 1.967-2.681 2.26-1.601.727-3.657.677-5.39-.13zm18.632-1.472c-2.238-1.164-3.097-2.996-3.101-6.612-.005-4.064 1.27-5.48 5.683-6.315 1.414-.268 2.7-.708 3.344-1.145.575-.39 1.489-.792 2.03-.894 2.606-.489 5.982.762 7.422 2.75 2.893 3.993-.239 8.226-6.566 8.875-1.761.18-1.818.212-2.557 1.435-1.245 2.061-4.215 2.967-6.255 1.906zm3.157-4.963c1.208-1.785 1.983-2.223 4.485-2.533 2.476-.308 4.75-1.165 4.568-1.721-.185-.564-1.924-1.628-2.66-1.628-.367 0-1.333.375-2.146.833-.894.504-2.294.968-3.548 1.174-2.652.438-2.985.76-2.76 2.678.326 2.77.806 3.05 2.06 1.197zm6.127-12.033c-2.402-.804-4.579-3.856-4.615-6.469-.018-1.334.764-3.423 1.853-4.948l.956-1.34H36.24c-1.494 0-6.084.99-9.122 1.966-3.777 1.216-5.078 1.126-7.277-.498-1.8-1.33-2.59-4.453-1.677-6.637.65-1.557 1.855-2.475 8.378-6.385 6.812-4.083 8.567-4.817 11.514-4.814 2.3.002 3.424.295 6.628 1.726 4.697 2.1 9.538 2.785 11.903 1.686 1.587-.738 2.834-2.195 5.214-6.095 3.506-5.743 5.563-7.224 11.951-8.6 6.038-1.3 9.358-2.788 13.303-5.961 3.654-2.94 5.973-6.786 7.117-11.805.69-3.03.819-11.218.24-15.29-.565-3.972-.445-5.215.728-7.564 1.536-3.073 4.27-4.442 8.366-4.186 1.985.123 2.723.316 4.421 1.156 2.83 1.398 4.467 2.923 5.588 5.2.926 1.883.927 1.893.915 6.124-.01 3.827-.1 4.579-.918 7.765-1.132 4.407-2.132 5.52-4.04 4.498-1.118-.597-1.157-1.482-.223-5.009.634-2.394.914-4.19 1.023-6.55.135-2.933.088-3.393-.48-4.716-1.57-3.65-7.441-5.572-10.124-3.315-1.136.956-1.522 2.628-1.143 4.955.962 5.902.772 14.013-.437 18.738-1.107 4.326-3.064 8.059-5.686 10.846-4.578 4.867-10.364 7.823-18.583 9.494-4.364.887-5.642 1.957-9.179 7.69-1.734 2.81-2.68 4.04-3.773 4.906-2.738 2.17-5.664 2.942-9.265 2.448-3.292-.451-5.482-1.128-10.255-3.171-1.977-.846-3.77-.935-5.706-.284-1.284.432-10.77 5.926-12.71 7.362-1.042.772-1.198 1.72-.4 2.441.681.617.987.595 3.456-.252 5.316-1.824 11.835-2.599 15.434-1.835 1.866.396 2.479.77 2.847 1.738.386 1.015-.156 2-1.814 3.298-2.546 1.995-3.997 4.261-3.642 5.691.237.958 1.231 1.987 1.92 1.987.328 0 1.553-1.025 2.992-2.502 2.961-3.041 4.258-3.773 6.662-3.76 2.224.013 3.288.47 5.54 2.381 2.166 1.837 2.828 2.219 3.904 2.25 2.206.062 3.653-1.57 3.878-4.375.117-1.453.032-2.003-.455-2.958-1.227-2.406-.517-3.842 1.863-3.769.742.023 3.303.147 5.693.276 8.086.434 16.774-.263 21.196-1.7 4.22-1.373 6.469-3.024 7.705-5.657 1.716-3.654 1.719-3.676 1.742-12.36.02-7.628.055-8.143.675-9.994.98-2.925 3.324-8.335 3.875-8.943 1.095-1.21 3.501-.294 3.501 1.333 0 .407-.696 2.388-1.546 4.401-2.228 5.276-2.423 6.503-2.337 14.684.07 6.5.04 6.951-.588 8.95-2.038 6.491-5.187 9.616-11.757 11.666-4.92 1.535-13.147 2.341-20.635 2.022l-4.55-.195-.13 2.361c-.199 3.626-1.689 6.188-4.48 7.707-1.213.66-1.821.805-3.392.805-2.394 0-4.254-.844-6.73-3.054-1.548-1.38-1.865-1.545-2.988-1.545-1.139 0-1.37.125-2.46 1.326-2.046 2.257-3.415 3.485-4.537 4.07-1.167.61-3.36.908-4.314.59zm60.63-87.172c-.999-.401-2.063-3.782-2.072-6.579-.015-4.51 2.602-7.494 8.209-9.362 2.38-.793 2.864-1.074 4.255-2.472.862-.867 1.963-2.275 2.446-3.128 1.087-1.924 2.404-5.78 3.179-9.314.74-3.376 1.47-4.685 3.206-5.759 1.583-.978 4.007-1.287 5.704-.727 1.767.583 3.302 2.386 4.214 4.948 2.615 7.349 3.004 7.944 6.815 10.428 3.994 2.603 8.28 7.47 8.74 9.923.577 3.078-1.976 5.72-5.542 5.734-3.215.013-5.997 1.15-8.835 3.611-2.258 1.958-4.138 2.726-6.676 2.726-2.447 0-3.843-.542-7.4-2.87-4.293-2.81-6.604-3.444-9.095-2.493-1.382.528-3.2 2.334-4.075 4.05-.704 1.379-1.75 1.816-3.074 1.284zm25.221-4.46c.548-.228 1.83-1.108 2.85-1.954 3.155-2.62 6.975-4.12 10.483-4.12.939 0 1.788-.132 1.888-.293.281-.456-1.355-2.788-3.31-4.717-.977-.963-2.939-2.514-4.359-3.445-3.74-2.454-4.901-4.145-7.018-10.226-1.126-3.235-1.809-4.18-3.02-4.18-1.219 0-2.085 1.052-2.464 2.993-.958 4.899-2.658 9.482-4.555 12.281-2.3 3.394-4.563 5.048-8.821 6.45-1.062.35-2.37 1.02-2.907 1.492-.97.852-1.959 2.396-1.7 2.655.075.074.665-.248 1.311-.716 1.855-1.344 3.65-1.817 6.353-1.675 2.028.106 2.636.273 4.694 1.29 1.3.643 3.485 1.866 4.854 2.718 1.37.851 2.893 1.599 3.387 1.66.493.062.997.133 1.118.158.121.025.669-.142 1.216-.37z"/></svg>