<svg enable-background="new 0 0 392.533 392.533" viewBox="0 0 392.533 392.533" xmlns="http://www.w3.org/2000/svg"><path d="m100.202 165.947c-27.281 0-49.455 22.174-49.455 49.455s22.174 49.455 49.455 49.455 49.455-22.174 49.455-49.455-22.174-49.455-49.455-49.455zm0 77.124c-15.257 0-27.604-12.347-27.604-27.604s12.412-27.604 27.604-27.604 27.604 12.347 27.604 27.604-12.347 27.604-27.604 27.604z"/><path d="m200.339 379.992c-.84-54.432-45.446-98.521-100.137-98.521-55.273 0-100.137 44.865-100.137 100.137 0 6.012 4.849 10.925 10.925 10.925h178.489.065c11.83 0 10.925-11.959 10.795-12.541zm-177.713-9.245c5.301-38.077 38.077-67.491 77.576-67.491s72.275 29.35 77.576 67.491z"/><path d="m278.626 0c-62.836 0-113.971 51.135-113.971 113.972 0 25.341 8.469 49.972 24.113 70.012l-13.123 67.943c-.84 4.396 1.099 8.857 4.849 11.313 3.426 2.133 9.503 1.681 12.283-.453l53.527-39.564c10.602 3.168 21.398 4.719 32.194 4.719 62.836 0 113.972-51.135 113.972-113.972s-51.007-113.97-113.844-113.97zm0 206.093c-10.279 0-20.558-1.745-30.513-5.301-3.426-1.228-7.176-.646-10.149 1.552l-35.62 26.246 8.792-45.511c.646-3.232-.259-6.659-2.392-9.18-14.352-16.679-22.238-38.012-22.238-59.992 0-50.877 41.309-92.186 92.186-92.186s92.186 41.309 92.186 92.186c-.001 50.877-41.375 92.186-92.252 92.186z"/><path d="m279.273 39.693c-.259 0-.388 0-.646 0-11.507 0-22.432 4.461-30.578 12.606-8.339 8.275-12.994 19.329-12.994 31.095 0 6.012 4.849 10.925 10.925 10.925 6.077 0 10.925-4.848 10.925-10.925 0-5.883 2.327-11.442 6.465-15.515 4.137-4.073 9.762-6.4 15.58-6.271 11.507.129 21.333 9.956 21.463 21.463.065 7.758-3.685 14.739-10.279 18.877-14.093 8.727-22.432 23.337-22.432 39.047 0 6.012 4.849 10.925 10.925 10.925 6.012 0 10.925-4.849 10.925-10.925 0-8.146 4.59-15.774 12.154-20.493 13.123-8.21 20.816-22.238 20.558-37.624-.389-23.533-19.589-42.797-42.991-43.185z"/><path d="m278.626 162.198c-6.012 0-10.925 4.848-10.925 10.925v4.202c0 6.012 4.849 10.925 10.925 10.925 6.012 0 10.925-4.849 10.925-10.925v-4.202c.001-6.077-4.913-10.925-10.925-10.925z"/></svg>