<svg xmlns="http://www.w3.org/2000/svg" width="475.697" height="609.392" viewBox="0 0 125.861 161.235"><g transform="translate(-55.987 -48.922)"><path d="M67.61 178.552l.048-4.016 1.37-.85.756.802 1.842-.708 1.512-2.315 1.607-.756 4.536-4.772s1.417-1.134 1.464-1.323c.047-.19.236-1.37.236-1.37l4.961-1.748-.283 1.275 1.323.19.945-.662 2.031.189 3.024-.331 2.315-1.181h2.646l2.41-1.37.756.897-.804 1.418 1.323 1.04.048-1.135.567-.141.472.897 4.252-1.937.237-1.228-1.465-2.08 1.654-2.834 4.724-6.095-.378-3.638.52-2.315 4.063-1.606.284 1.275-2.126 2.315h-.993l-.425 1.276 1.323-.094-.283 2.55 2.22 1.277.803-2.08 5.245-2.503.898-.095 3.968-4.536s.662-3.118 1.181-3.26c.52-.141 3.875-2.551 3.875-2.551s.52-3.166.52-3.45c0-.283 1.039-2.598 1.039-2.598l1.276-1.464.992-5.34.708-.424s.71-3.071.615-3.26c-.095-.19-.331-1.843-.331-1.843l-.709-1.087-.472-.094-.567.567h-.284l-.756-1.654 1.229.425 1.228-2.787.095-1.748-.52-.945v-.898l-.803-.945 1.417-1.417 1.087.189.756-.945.425-2.316.52.52v-.661l-.567-1.418.047-1.086.992.614.992-.378.615.85.141 3.45.85.094.568-.85-.142-.946.614-.047 1.56 1.465s.803-1.512.803-1.795v-.804l.33-.33-.85-1.654-3.166 1.465 1.04-4.914 3.024 2.693s1.322-1.087 1.322-.756v9.402l2.93 4.441.945 6.473v1.89l-1.229 4.252-2.362 3.922.283 4.11-1.039.756-.473-1.89-2.74 1.56-.425 5.622.567 8.174-1.843 1.748-1.464 5.764 2.267 6.426-1.89.141-1.795 2.41.095 2.315-.992 1.181-1.985 1.087-.85 1.228-1.04-1.275.473-3.166 2.126-2.646-1.748-1.086-1.796 2.362.19 2.268-.473 1.275-1.701-2.22-1.606 1.37-.52 4.252-1.465 1.654-1.606-.709s.52-1.795.52-2.41c0-.614.944-1.559.944-1.559l-2.504-.378-2.787 4.914-7.229.19s-1.795.66-1.748.472c.047-.19.52-1.465.52-1.465l1.275-.992-2.315.945s-.709-.52-.709-.945c0-.425.426-2.788.426-2.788s-1.182-.472-1.276-.094c-.095.378-1.654 2.504-1.795 3.213-.142.708 1.89 3.165 1.89 3.165l1.322 1.134v2.032l-2.504-1.512-2.126 1.512s-.992 1.748-1.04 1.937c-.047.189-1.511 3.638-1.511 3.638l-1.512 1.7-3.638-1.795-.898-2.126-.378-2.93-.283-1.747 1.89-1.985.945-1.417-.945-.992-1.796.992s-1.842-1.228-2.457-1.465c-.614-.236-2.126.095-2.126.095l-2.457 1.18-1.228.757-.472 1.04-1.134.094-.71-.709-1.464.378-1.323 1.607-1.04.236-2.22.189-1.228-.284s-.567.52-.992.567c-.426.048-1.276-.897-1.276-.897l-1.087-.048-.945 1.56s-.047 1.417-.047 1.606c0 .189.047 1.087-.047 1.512-.095.425-.52 1.323-.52 1.323l-.992-1.418s-.472-.614-.803-.756c-.331-.141-1.701-.472-1.701-.472l-1.89.047-1.37.756-1.087-.803z" fill="none" stroke="#000" stroke-width="1.058" stroke-linejoin="bevel"/><path d="M93.81 175.668l.802 1.202 2.389-1.091-1.253-.846 1.347-2.556-1.28.551zM94.082 177.718l.732 3.621-2.138 2.673-1.337 3.407-2.873-2.739-3.942 1.27-2.339 4.209-.2 2.071-2.806-.066.801-1.738-1.737-1.136.401-1.603-.869-2.138s-2.74.735-2.472.735c.267 0 4.01-3.742 4.01-3.742l.801-2.406 1.737-1.135 1.537 1.67 2.606-.802.95-2.777 1.915-1.09 2.056-.002 1.867 1.438zM67.55 182.897l2.598.52.756-1.229 1.276.426.472 1.039-.377 1.323-1.418.756.142.756 2.835-.095.52 3.78-1.89 3.969-1.89 6.236.047 1.04-1.323 3.732-1.465-.614-.897.898.756 1.512-3.355 1.984.992-2.598-.992-3.024-.945.189.19 2.551.472.709-.19 1.04-2.504-1.37-.803-1.466.85.048.473-2.032-1.134-2.457.236-2.551 1.134-.473 2.032-4.63-.378-2.032-1.417-3.07h-2.174l.473 1.748 1.559 1.842-1.418 1.654-.52-1.89-1.606.567-.897 1.654-.142-.85-.898-3.072.19-1.748-.331-1.465-.048-1.606 1.748.803.378-2.079 1.276-.094 1.276-.85h.897l.85-.946.143-.52 1.795-1.322 1.795.52z" fill="none" stroke="#000" stroke-width="1.058"/><path d="M138.48 97.35l2.456-1.89v-1.89l2.08-.85 2.078 1.417.756-1.606-3.307-3.874-1.512-.095-1.323-1.512 1.228-3.401 1.89.661 1.796 2.268 4.819-3.024 2.362-.283 10.111 7.654.945-1.512-.189-2.646 4.158-6.331 3.307-1.512.945.283 2.835.945 4.914-3.968 2.645-1.418-.661-.661-2.268 1.134-1.228-2.74-.945-3.213 2.362-5.481-.661-.85-3.875 5.008h-3.968l-1.323-1.89-6.804-3.969-9.544-12.662-2.457.472-.756 3.119 2.08 5.386-.851 4.913-.756 5.481-1.984 1.323-.095 3.118.662 1.418-1.323 2.646-1.985-.473-4.347-2.173-.755 1.323 1.417 2.929-1.606 2.93-1.512.283-2.268 1.228.094 4.914 1.89 1.984.284 1.985-1.229 3.212z" fill="none" stroke="#000" stroke-width="1.058" stroke-linejoin="bevel"/><text style="line-height:1.25" x="125.723" y="157.183" font-weight="400" font-size="4.186" font-family="sans-serif" letter-spacing="0" word-spacing="0" stroke-width=".105"><tspan x="125.723" y="157.183">Tokyo</tspan></text><ellipse cx="133.362" cy="160.178" rx=".668" ry=".802" fill="none" stroke="#000" stroke-width="1.058" stroke-linejoin="bevel"/><text style="line-height:1.25" x="87.889" y="168.723" font-weight="400" font-size="4.186" font-family="sans-serif" letter-spacing="0" word-spacing="0" stroke-width=".105"><tspan x="87.889" y="168.723">Osaka</tspan></text><ellipse cx="102.131" cy="168.96" rx=".668" ry=".802" fill="none" stroke="#000" stroke-width="1.058" stroke-linejoin="bevel"/><ellipse cx="105.093" cy="166.657" rx=".668" ry=".802" fill="none" stroke="#000" stroke-width="1.058" stroke-linejoin="bevel"/><text style="line-height:1.25" x="107.554" y="165.745" font-weight="400" font-size="4.186" font-family="sans-serif" letter-spacing="0" word-spacing="0" stroke-width=".105"><tspan x="107.554" y="165.745">Kyoto</tspan></text><path d="M88.327 134.52l13.363 33.141-4.009-36.616-2.405 11.493z" fill="#0ff" stroke="#000"/><text style="line-height:1.25" x="65.342" y="128.373" font-weight="400" font-size="10.583" font-family="sans-serif" letter-spacing="0" word-spacing="0" stroke-width=".265"><tspan x="65.342" y="128.373">we&apos;re here</tspan></text></g></svg>