<svg xmlns="http://www.w3.org/2000/svg" viewBox="0 0 144.465 102.244" height="386.433" width="546.01"><path d="M35.858 101.77c-5.926-1.593-10.363-6.932-10.942-13.165l-.18-1.936-1.565.083c-1.524.081-1.57.109-1.816 1.061-.361 1.4-1.217 2.48-2.475 3.121-1.002.511-1.677.558-8.029.558-7.637 0-8.214-.1-9.532-1.667C.192 88.485-.097 87.14.026 83.81c.102-2.74.17-3.039.92-4.021.445-.584 1.236-1.314 1.758-1.622l.949-.56V59.28c0-20.042.03-20.48 1.67-24.459 2.6-6.306 7.932-11.034 14.747-13.078 1.918-.576 2.779-.629 11.875-.735l9.808-.115v-4.189H26.385c-10.938 0-15.573-.093-16.077-.323-.94-.428-1.22-1.387-.987-3.375.38-3.215 3.036-7.242 5.68-8.609 2.878-1.488 3.211-1.521 15.321-1.521h11.341L42 1.75c.7-2.338 3.472-2.332 3.95.01l.2.973h5.598l.2-.974c.23-1.126.89-1.707 1.94-1.707 1.05 0 1.71.581 1.94 1.707l.2.974 18.426.142c17.828.136 18.44.158 18.827.689.596.815.5 2.237-.194 2.865-.569.516-1.352.541-18.908.614l-18.315.077v5.35h33.16c27.387 0 33.162-.065 33.162-.375 0-.59-1.579-2.82-2.453-3.465-1.894-1.395-1.736-1.374-11.33-1.522l-9.128-.141-.539-.666c-.699-.864-.688-2.149.025-2.862.54-.54.941-.564 9.41-.564 9.37 0 10.037.079 12.827 1.521 2.643 1.367 5.3 5.394 5.679 8.609.234 1.988-.046 2.947-.987 3.375-.52.237-9.92.323-35.267.323h-34.56v4.218l33.232.084 33.232.083 2.068.637c6.883 2.12 12.15 6.798 14.747 13.095 1.64 3.98 1.67 4.417 1.67 24.46v18.328l.949.56c.522.307 1.313 1.037 1.758 1.62.75.984.818 1.282.92 4.022.123 3.331-.166 4.676-1.292 6.015-1.319 1.566-1.896 1.667-9.533 1.667-6.352 0-7.027-.047-8.029-.558-1.258-.641-2.113-1.72-2.476-3.12l-.252-.978-3.017-.08-3.016-.08v.945c0 3.496-1.747 7.552-4.395 10.206-5.847 5.86-15.01 5.893-20.812.072-2.712-2.719-4.41-6.563-4.423-10.005l-.004-1.2h-3.527c-3.152 0-3.588-.06-4.093-.564-.712-.713-.724-1.997-.025-2.861.513-.634.73-.671 4.517-.758l3.979-.092.774-1.585c1.596-3.264 5.176-6.29 8.797-7.434 3.452-1.09 7.965-.677 11.357 1.042 2.124 1.077 4.814 3.785 6 6.043l1.039 1.976h3.38c2.458 0 3.41-.096 3.489-.352.06-.194.183-.693.273-1.108.213-.973 1.403-2.381 2.527-2.988.71-.383 1.87-.498 5.893-.582l5.01-.104V60.73H84.663c-37.984 0-52.104-.085-52.616-.319-1.432-.652-1.559-2.89-.205-3.615.388-.208 16.471-.3 52.648-.3h52.088v-7.715c0-6.756-.069-7.987-.556-9.892-1.302-5.089-4.773-9.433-9.34-11.687-4.37-2.156-.747-2.022-54.45-2.022s-50.081-.134-54.451 2.022c-4.566 2.254-8.038 6.598-9.34 11.687-.487 1.905-.556 3.136-.556 9.892v7.716h8.57c8.242 0 8.598.022 9.313.585.898.706.982 1.88.204 2.84l-.539.667-8.774.082-8.774.082v16.628l4.445.002c2.445.001 4.95.142 5.568.314 1.346.373 3.144 2.083 3.398 3.232.1.455.232.986.292 1.18.073.238.748.353 2.076.353h1.968l.92-1.726c4.122-7.734 13.807-10.309 21.122-5.615 1.92 1.233 4.265 3.837 5.165 5.738l.749 1.582 9.879.08c9.724.08 9.888.092 10.494.698.81.81.785 2.303-.05 2.98-.557.451-1.466.496-10.036.496h-9.423l-.005 1.2c-.02 6.131-4.661 11.99-10.983 13.867-1.889.561-5.54.565-7.607.01zm7.437-4.372c6.586-2.464 8.967-10.4 4.816-16.054-4.816-6.561-14.504-5.536-18.018 1.907-.787 1.667-.892 2.176-.886 4.29.007 2.566.493 4.077 2.02 6.288.958 1.387 3.196 3.017 5 3.64 2.016.697 5.098.666 7.068-.07zm-6.097-2.397c-1.796-.553-3.956-2.553-4.749-4.395-.776-1.803-.718-4.829.125-6.565 1.657-3.412 6.192-5.304 9.654-4.028 7.004 2.583 6.987 12.491-.026 14.915-1.721.595-3.237.617-5.004.073zm3.98-4.209c1.86-.962 2.662-3.04 1.84-4.771-1.263-2.663-5.009-2.881-6.487-.379-1.79 3.031 1.56 6.746 4.646 5.15zm65.28 6.247c2.208-1.08 4.016-2.928 5.089-5.201.787-1.668.896-2.189.896-4.297 0-2.106-.109-2.63-.893-4.29-1.131-2.397-3.007-4.285-5.258-5.293-2.238-1.002-3.595-1.198-5.812-.841-2.925.47-5.221 1.875-6.975 4.263-4.063 5.536-1.827 13.22 4.642 15.947 1.373.58 1.968.663 4.158.585 2.103-.075 2.839-.23 4.154-.873zm-7.017-2.11c-5.903-2.041-7.198-10.147-2.187-13.691 1.709-1.21 2.748-1.552 4.778-1.578 3.195-.04 6.232 2.084 7.362 5.148.585 1.588.448 4.397-.294 5.99-1.24 2.665-4.35 4.662-7.215 4.636-.554-.005-1.654-.233-2.444-.506zm4.315-4.27c1.819-1.11 2.398-3.253 1.356-5.017-1.48-2.505-5.225-2.283-6.49.384-1.065 2.243.855 5.182 3.385 5.182.466 0 1.252-.247 1.749-.55zM17.31 86.812c.094-.246.171-1.316.171-2.38 0-2.904.204-2.818-6.737-2.818-4.173 0-5.947.097-6.188.338-.36.36-.49 4.78-.15 5.118.103.103 3.01.188 6.46.188 5.46 0 6.295-.058 6.444-.446zm122.88-2.05c.052-1.495-.038-2.501-.247-2.752-.263-.317-1.505-.396-6.2-.396-6.966 0-6.76-.087-6.76 2.819 0 3.085-.581 2.846 6.736 2.76l6.388-.076zM51.912 18.82v-2.117h-5.927v4.234h5.927zM41.753 9.79V7.108h-11.08c-6.367 0-11.487.117-12.04.276-.529.151-1.448.612-2.042 1.024-1.091.757-2.778 2.995-2.778 3.687 0 .307 2.541.375 13.97.375h13.97zm10.16 0V7.108h-5.927v5.362h5.927zm47.13 57.714c-.712-.713-.724-1.997-.025-2.861.524-.647.683-.67 5.46-.76 5.573-.105 6.998.13 7.502 1.234.456 1.002.415 1.354-.257 2.208l-.585.744h-5.765c-5.389 0-5.802-.037-6.33-.565zm-86.31-15.328c-.582-.62-.614-.91-.614-5.585 0-3.458.126-5.415.42-6.546 1.337-5.133 5.175-8.92 10.323-10.185 1.526-.375 3.595-.456 11.744-.456 9.58 0 9.916.019 10.636.585l.744.585v10.563c0 10.187-.02 10.583-.565 11.127-.55.551-.94.565-16.32.565H13.347zm29.02-11.06v-7.478l-8.397.003c-6.365.003-8.761.1-9.907.405-2.69.716-4.98 2.646-6.215 5.236-.667 1.4-.75 1.934-.832 5.433l-.092 3.88H41.753zm10.724 11.148c-.544-.544-.564-.94-.564-11.127V30.573l.743-.585c.736-.578.951-.585 19.577-.585 18.625 0 18.84.006 19.576.585l.744.585v10.563c0 10.187-.02 10.583-.565 11.127-.553.554-.94.565-19.755.565-18.815 0-19.203-.011-19.756-.565zm36.124-11.147v-7.48H55.863v14.959h32.738zm10.443 11.147c-.545-.544-.565-.94-.565-11.127V30.573l.744-.585c.72-.566 1.055-.585 10.636-.585 8.15 0 10.218.08 11.744.456 5.148 1.265 8.986 5.052 10.323 10.185.295 1.134.42 3.093.42 6.585 0 4.832-.019 4.989-.653 5.585l-.654.614h-15.715c-15.34 0-15.73-.014-16.28-.565zm29.02-7.549c-.084-3.498-.165-4.033-.833-5.433-1.235-2.59-3.525-4.52-6.215-5.235-1.146-.305-3.542-.403-9.907-.406l-8.396-.003v14.958h25.442z"/></svg>