<svg xmlns="http://www.w3.org/2000/svg" viewBox="0 0 138.257 104.131" height="393.567" width="522.545"><path d="M65.515 103.534c-2.876-1.206-4.534-2.92-5.617-5.805-.45-1.202-.553-1.984-.481-3.693.16-3.84 2.152-6.853 5.598-8.469 1.306-.613 1.876-.712 4.085-.712 2.21 0 2.78.1 4.086.712 2.136 1.002 3.6 2.43 4.626 4.513.807 1.64.88 2.004.88 4.362 0 2.215-.098 2.784-.711 4.091-1.001 2.135-2.431 3.601-4.512 4.626-1.527.752-2.125.892-4.092.955-1.935.063-2.553-.03-3.862-.58zM45.59 80.144c-3.108-.945-5.2-3.833-5.2-7.178 0-2.25.75-3.84 2.69-5.707 5.515-5.31 12.562-8.756 20.473-10.011 3.288-.522 10.03-.36 13.113.316 6.706 1.469 13.192 4.813 17.797 9.175 2.5 2.368 3.276 3.876 3.271 6.362-.008 4.047-2.722 6.943-6.783 7.235-2.239.16-4.036-.58-6.227-2.563-3.958-3.585-8.134-5.454-13.394-5.997-6.524-.672-12.826 1.444-17.849 5.992-1.973 1.788-3.825 2.629-5.728 2.603-.817-.012-1.79-.114-2.163-.227zM24.94 59.872c-3.77-1.52-5.625-6.124-3.971-9.861 1.405-3.176 10.483-10.393 17.802-14.153a66.43 66.43 0 0 1 60.659 0c7.319 3.76 16.397 10.977 17.802 14.153 2.244 5.073-1.83 10.816-7.319 10.319-2.021-.184-3.212-.835-5.82-3.184-10.23-9.214-21.844-13.773-35.07-13.767-13.022.006-24.825 4.663-34.915 13.775-1.19 1.074-2.648 2.201-3.243 2.505-1.567.8-4.23.897-5.925.213zM5.799 39.851C1.474 38.789-.903 34.748.32 30.539c.536-1.845 2.239-3.768 6.883-7.774C21.594 10.35 37.855 3.184 58.022.367c3.5-.49 18.657-.49 22.157 0 12.706 1.775 22.877 4.93 32.95 10.22 8.204 4.307 16.986 10.747 22.485 16.486 2.516 2.626 3.152 4.825 2.261 7.823-.871 2.936-3.747 5.052-6.896 5.075-2.327.017-3.861-.7-6.167-2.882-13.216-12.504-27.866-19.506-45.984-21.978-4.653-.635-14.802-.635-19.455 0C41.79 17.51 27.91 23.977 14.659 35.945c-1.78 1.608-3.725 3.137-4.323 3.399-1.406.615-3.254.822-4.537.507z"/></svg>