<svg xmlns="http://www.w3.org/2000/svg" viewBox="0 0 120.187 126.162" height="476.832" width="454.25"><path d="M103.822 125.305c-19.447-5.133-22.363-5.973-23.016-6.625l-.658-.657-.075-5.223c-.042-2.873-.01-5.488.071-5.811.237-.944 1.315-1.78 2.296-1.78 1.2 0 25.926 6.835 26.684 7.376.799.57 1.164 1.957.768 2.914-.326.787-1.42 1.548-2.224 1.548-.285 0-5.344-1.332-11.244-2.96-5.9-1.627-10.838-2.959-10.973-2.959-.145 0-.247.818-.247 1.966v1.966l1.294.367c.712.202 5.674 1.537 11.026 2.967 10.75 2.87 11.612 2.997 13.696 2.01 4.658-2.206 5.162-8.557.902-11.375-1.294-.857-27.98-8.012-29.881-8.012-.99 0-5.924 1.223-18.004 4.462-9.152 2.453-16.973 4.458-17.38 4.454-.964-.009-35.559-9.23-36.55-9.742-1.19-.616-1.303-1.327-1.303-8.236 0-5.154.068-6.42.382-7.08.717-1.512 2.555-1.82 3.868-.647l.805.719.123 5.63.124 5.63 14.92 3.968 14.919 3.968.123-6.803c.087-4.813.214-6.962.433-7.345.84-1.467 2.54-1.73 3.817-.588l.805.719.123 7.018.124 7.018 15.042-4.033c8.274-2.22 15.07-4.036 15.105-4.039.034-.003.061-3.373.061-7.49v-7.485l.596-.643c.327-.353.882-.714 1.233-.802.913-.23 1.821.061 2.508.802l.595.643v7.468c0 6.899.033 7.48.432 7.602.237.073 6.467 1.747 13.844 3.72 7.378 1.973 13.962 3.863 14.632 4.2.67.336 1.265.612 1.321.612.057 0 .104-5.485.104-12.188V80.34l-.802-.252c-.44-.139-5.24-1.437-10.665-2.885-5.426-1.448-10.178-2.793-10.562-2.989-.957-.49-1.449-1.724-1.137-2.854.296-1.071 1.148-1.664 2.38-1.656.514.003 5.4 1.207 10.86 2.675l9.926 2.67V51.286l-10.79-2.889c-5.933-1.588-11.066-3.087-11.405-3.33-.339-.244-.762-.742-.941-1.106-.659-1.343.657-3.362 2.191-3.362.51 0 17.142 4.321 20.513 5.33.406.12.432-.456.432-9.73v-9.86l-.802-1.546c-1.304-2.516-2.031-2.9-9.09-4.791-3.308-.887-6.292-1.813-6.63-2.058-.854-.618-1.302-1.627-1.11-2.5.201-.918 1.436-1.971 2.309-1.971 1.23 0 12.611 3.2 14.156 3.98 1.849.932 4.073 3.122 4.852 4.774 1.478 3.138 1.364-.69 1.436 48.276.059 39.62.022 45.014-.313 46.46-1.25 5.392-6.145 9.244-11.685 9.197-.626-.005-2.58-.39-4.344-.856zM41.43 79.425c-3.545-.916-4.336-1.363-4.658-2.635-.276-1.084.367-2.349 1.463-2.878.653-.315.984-.282 3.44.342 3.65.928 4.69 1.397 5.174 2.332.317.614.345.955.14 1.72-.534 1.981-1.483 2.172-5.559 1.119zm11.527.138c-1.074-.655-1.437-1.488-1.147-2.633.316-1.248 1.102-1.733 4.12-2.543 3.768-1.01 4.48-1.029 5.442-.138.502.465.652.84.652 1.62 0 1.254-.311 1.863-1.179 2.304-.614.313-6.342 1.885-6.859 1.882-.123 0-.586-.222-1.03-.492zm-44.742-.97C2.726 76.84-.736 71.358.134 65.797c.72-4.62 4.138-8.378 8.639-9.502 2.105-.526 3.69-.511 5.796.055 2.121.57 3.554 1.387 5.114 2.918 6.244 6.125 3.65 16.73-4.725 19.318-1.997.618-4.829.621-6.744.008zm5.907-5.082c2.327-.97 4.009-3.493 4.005-6.01-.007-3.59-2.927-6.495-6.533-6.495-2.68 0-4.786 1.372-5.953 3.88-2.455 5.27 3.063 10.881 8.48 8.625zm-4.287-4.002c-1.079-.874-1.34-2.037-.725-3.227 1.013-1.96 4.643-1.535 5.18.605.223.884-.257 2.2-.974 2.669-.805.528-2.804.5-3.48-.047zm17.788 6.23c-1.334-.473-1.85-1.167-1.85-2.492 0-1.812 1.261-2.675 3.346-2.29 2.235.413 3.35 1.757 2.847 3.433-.488 1.63-2.12 2.137-4.343 1.35zm39.807-.596c-1.141-1.142-.793-3.269.644-3.923 1.323-.603 6.544-1.817 7.155-1.663 2.155.54 2.515 3.559.55 4.61-.89.477-5.69 1.694-6.684 1.696-.715 0-1.118-.173-1.665-.72zm13.28-5.335c-.37-.2-.785-.577-.924-.837-.141-.263-.253-2.128-.253-4.207V61.03l.72-.72c1.21-1.21 3.14-.877 3.936.68.38.741.364 7.013-.019 7.853-.555 1.218-2.165 1.667-3.46.965zm-35.29-3.82c-.352-.277-.755-.915-.895-1.417-.143-.514-.254-3.63-.255-7.13l-.001-6.218-.925-.244c-.509-.135-7.16-1.915-14.78-3.956-7.62-2.04-13.973-3.71-14.118-3.71-.17 0-.263.948-.263 2.681 0 1.475-.069 3.027-.153 3.45-.499 2.494-3.886 2.751-4.794.364-.338-.89-.306-38.511.034-39.487.326-.936 1.191-1.533 2.221-1.533.428 0 8.45 2.062 17.826 4.582 9.376 2.52 17.27 4.584 17.541 4.587.271.003 4.055-.949 8.408-2.115 4.353-1.167 8.329-2.122 8.835-2.122 2.54 0 3.283 3.715.932 4.656-.531.213-8.395 2.358-14.538 3.967l-1.048.274v11.72c0 11.05.025 11.714.432 11.588 3.303-1.026 19.155-5.078 19.862-5.078.724 0 1.125.173 1.673.72.968.968.984 2.186.043 3.229-.628.696-1.425.952-10.79 3.466-5.56 1.493-10.36 2.777-10.665 2.855l-.555.14v6.472c0 3.978-.102 6.764-.265 7.232-.518 1.487-2.492 2.026-3.762 1.028zm-1.255-43.33c-.06-.059-6.831-1.909-15.047-4.11l-14.94-4.002.065 11.711.064 11.711 14.92 3.997 14.919 3.996.064-11.597c.035-6.378.015-11.646-.045-11.705zM80.71 54.273c-.37-.2-.785-.577-.924-.837-.141-.263-.253-2.128-.253-4.207v-3.734l.72-.72c1.21-1.21 3.14-.877 3.936.68.38.741.364 7.013-.019 7.853-.555 1.218-2.165 1.667-3.46.965zm0-15.536c-.37-.2-.785-.577-.924-.837-.141-.263-.253-2.128-.253-4.207v-3.734l.72-.72c1.21-1.21 3.14-.877 3.936.68.38.741.364 7.013-.019 7.853-.555 1.218-2.165 1.667-3.46.965zm-2.29-16.121c-2.129-.758-3.191-1.415-4.655-2.88-2.288-2.287-3.356-4.868-3.356-8.105 0-3.401 1.028-5.86 3.485-8.33C80.485-3.333 91.995.61 93.385 9.975c.83 5.587-2.748 11.109-8.256 12.745-1.713.508-5.136.455-6.71-.106zm5.471-4.825c1.664-.494 3.316-1.98 4.021-3.619.461-1.072.537-1.602.441-3.094-.098-1.526-.24-1.982-.93-2.994-.447-.656-1.35-1.559-2.007-2.007-1.01-.69-1.467-.831-2.993-.93-1.492-.095-2.022-.02-3.094.442-3.022 1.3-4.698 4.973-3.632 7.96.724 2.03 2.226 3.531 4.26 4.257 1.232.44 2.42.435 3.934-.014zm-2.632-3.737c-1.644-.542-2.428-1.789-1.98-3.148.367-1.109 1.008-1.64 2.173-1.796 3.393-.455 4.605 3.94 1.337 4.848-.99.275-.986.275-1.53.096z"/></svg>