<svg xmlns="http://www.w3.org/2000/svg" viewBox="0 0 373.459 373.459"><path d="M134.359 178.401c5.674-6.585 9.108-15.153 9.108-24.507 0-20.727-16.862-37.589-37.589-37.589-20.728 0-37.591 16.862-37.591 37.589 0 9.354 3.435 17.922 9.109 24.507-13.18 7.05-22.167 20.954-22.167 36.917v32.836a9 9 0 0 0 9 9h83.297a9 9 0 0 0 9-9v-32.836c.001-15.963-8.986-29.867-22.167-36.917zm-28.481-44.096c10.802 0 19.589 8.788 19.589 19.589 0 10.735-8.68 19.482-19.39 19.589h-.398c-10.711-.107-19.392-8.854-19.392-19.589.001-10.802 8.789-19.589 19.591-19.589zm32.649 104.849H73.23v-23.836c0-13.143 10.691-23.835 23.833-23.835h17.63c13.143 0 23.835 10.692 23.835 23.835v23.836zm57.247-92.076a9 9 0 0 1 9-9h48.651c4.971 0 9 4.029 9 9s-4.029 9-9 9h-48.651a9 9 0 0 1-9-9zM335.358 44.432h-24.406a10.622 10.622 0 0 0-.357 0h-46.887a10.622 10.622 0 0 0-.357 0h-46.886a10.68 10.68 0 0 0-.358 0h-46.89a10.444 10.444 0 0 0-.354 0h-46.887a10.622 10.622 0 0 0-.357 0H74.733a10.622 10.622 0 0 0-.357 0H38.099C17.091 44.432 0 61.524 0 82.531v208.394c0 21.009 17.091 38.101 38.099 38.101h24.408c.121.003.24.002.358 0h46.886c.121.003.24.002.358 0h46.888c.118.002.236.002.354 0h46.89c.118.002.236.002.354 0h46.887l.179.002.179-.002h46.887c.119.002.238.002.356 0h36.273c21.009 0 38.101-17.092 38.101-38.101V82.531c.002-21.007-17.09-38.099-38.099-38.099zm20.101 246.493c0 11.084-9.017 20.101-20.101 20.101h-21.495l4.856-9.171a9.002 9.002 0 0 0-3.742-12.166 8.998 8.998 0 0 0-12.165 3.743l-9.316 17.594H266.62l4.856-9.171a9 9 0 0 0-15.908-8.424l-9.317 17.595h-26.876l4.856-9.171a9 9 0 0 0-15.908-8.424l-9.317 17.595H172.13l4.856-9.171a9 9 0 0 0-15.908-8.424l-9.317 17.595h-26.876l4.856-9.171a9 9 0 0 0-15.908-8.424l-9.317 17.595H77.644l4.856-9.171a9 9 0 0 0-15.908-8.424l-9.317 17.595H38.099c-11.083 0-20.099-9.017-20.099-20.101V82.531c0-11.083 9.017-20.099 20.099-20.099h21.498l-4.856 9.17a9 9 0 0 0 15.908 8.424l9.317-17.594h26.874l-4.856 9.17a9 9 0 0 0 15.908 8.424l9.317-17.594h26.875l-4.856 9.171a9 9 0 0 0 3.743 12.165c4.392 2.325 9.84.65 12.165-3.742l9.316-17.594h26.877l-4.856 9.17a9 9 0 0 0 15.908 8.424l9.317-17.594h26.876l-4.856 9.17a9 9 0 0 0 15.908 8.424l9.317-17.594h26.876l-4.856 9.17a9 9 0 0 0 15.908 8.424l9.317-17.594h19.175c11.084 0 20.101 9.017 20.101 20.099v208.394zm-35.694-64.546a9 9 0 0 1-9 9H204.774c-4.971 0-9-4.029-9-9s4.029-9 9-9h105.991a9 9 0 0 1 9 9zm0-35.756a9 9 0 0 1-9 9H204.774c-4.971 0-9-4.029-9-9s4.029-9 9-9h105.991a9 9 0 0 1 9 9z"/></svg>