<svg enable-background="new 0 0 792 792" height="792" viewBox="0 0 792 792" width="792" xmlns="http://www.w3.org/2000/svg"><path d="m614.582.128-120.385.056s-2.439-.184-6.826-.184c-24.701 0-149.617 6.863-183.603 140.809-.532 1.486-11.965 35.014-12.148 112.988h-114.2c-10.129 0-18.351 8.221-18.351 18.351v105.226c0 10.13 8.222 18.351 18.351 18.351h124.898v377.924c0 10.13 8.221 18.352 18.351 18.352h143.011c10.129 0 18.352-8.222 18.352-18.352v-377.54h125.301c10.131 0 18.352-8.221 18.352-18.351v-105.61c0-10.13-8.221-18.351-18.352-18.351h-125.046v-45.163c0-30.078 19.086-62.21 72.672-62.21h59.623c10.129 0 18.35-8.221 18.35-18.351v-109.594c0-10.129-8.203-18.351-18.35-18.351zm-18.352 109.594h-41.271c-75.553 0-109.373 49.677-109.373 98.913v63.514c0 10.13 8.221 18.351 18.35 18.351h125.044v68.909h-125.3c-10.131 0-18.352 8.221-18.352 18.351v377.539h-106.308v-377.925c0-10.13-8.221-18.351-18.351-18.351h-124.898v-68.523h114.346c4.936 0 9.652-1.982 13.103-5.505s5.34-8.276 5.249-13.213c-1.633-83.461 9.836-118.604 10.387-120.384 27.067-106.419 120.529-114.696 148.515-114.696 2.551 0 4.074.074 5.561.129h103.298z"/></svg>