<svg enable-background="new 0 0 612 612" height="612" viewBox="0 0 612 612" width="612" xmlns="http://www.w3.org/2000/svg"><path d="m513.381 84.865h-56.158c-18.346 0-33.281 14.936-33.281 33.281v56.144c0 18.345 14.936 33.281 33.281 33.281h56.158c18.345 0 33.281-14.936 33.281-33.281v-56.144c0-18.346-14.936-33.281-33.281-33.281zm4.138 89.425c0 2.288-1.851 4.138-4.138 4.138h-56.158c-2.288 0-4.139-1.851-4.139-4.138v-56.144c0-2.288 1.865-4.138 4.139-4.138h56.158c2.272 0 4.138 1.851 4.138 4.138zm-36.662-167.004h-349.714c-72.304 0-131.143 58.839-131.143 131.143v335.142c0 72.305 58.839 131.143 131.143 131.143h349.714c72.303 0 131.143-58.838 131.143-131.143v-335.142c0-72.304-58.84-131.143-131.143-131.143zm102 466.285c0 56.246-45.755 102-102 102h-349.714c-56.246 0-102-45.754-102-102v-218.571h146.895c-27.802 30.979-44.895 71.764-44.895 116.571 0 96.42 78.438 174.857 174.857 174.857s174.857-78.438 174.857-174.857c0-44.807-17.093-85.592-44.895-116.571h146.895zm-276.857-247.714c80.347 0 145.714 65.368 145.714 145.714 0 80.348-65.367 145.715-145.714 145.715s-145.714-65.367-145.714-145.715c0-80.346 65.367-145.714 145.714-145.714zm276.857 0h-180.409c-27.671-18.375-60.807-29.143-96.448-29.143-35.627 0-68.777 10.768-96.448 29.143h-180.409v-87.428c0-56.246 45.754-102 102-102h349.714c56.245 0 102 45.754 102 102zm-276.857 247.714c56.246 0 102-45.754 102-102 0-56.244-45.754-102-102-102s-102 45.755-102 102c0 56.246 45.754 102 102 102zm0-174.856c40.174 0 72.857 32.685 72.857 72.856 0 40.174-32.684 72.857-72.857 72.857s-72.857-32.684-72.857-72.857c0-40.172 32.684-72.856 72.857-72.856z"/></svg>